<?xml version="1.0" encoding="UTF-8" standalone="no"?>
<svg
   xmlns:dc="http://purl.org/dc/elements/1.1/"
   xmlns:cc="http://creativecommons.org/ns#"
   xmlns:rdf="http://www.w3.org/1999/02/22-rdf-syntax-ns#"
   xmlns:svg="http://www.w3.org/2000/svg"
   xmlns="http://www.w3.org/2000/svg"
   xmlns:sodipodi="http://sodipodi.sourceforge.net/DTD/sodipodi-0.dtd"
   xmlns:inkscape="http://www.inkscape.org/namespaces/inkscape"
   width="286.51999mm"
   height="85.874001mm"
   viewBox="0 0 286.51999 85.874001"
   version="1.1"
   id="svg8"
   inkscape:version="1.0.1 (3bc2e813f5, 2020-09-07)"
   sodipodi:docname="amazon.svg">
  <defs
     id="defs2" />
  <sodipodi:namedview
     id="base"
     pagecolor="#ffffff"
     bordercolor="#666666"
     borderopacity="1.0"
     inkscape:pageopacity="0.0"
     inkscape:pageshadow="2"
     inkscape:zoom="0.61094777"
     inkscape:cx="450.33484"
     inkscape:cy="216.38055"
     inkscape:document-units="mm"
     inkscape:current-layer="layer1"
     inkscape:document-rotation="0"
     showgrid="false"
     inkscape:window-width="1252"
     inkscape:window-height="715"
     inkscape:window-x="0"
     inkscape:window-y="0"
     inkscape:window-maximized="0" />
  <metadata
     id="metadata5">
    <rdf:RDF>
      <cc:Work
         rdf:about="">
        <dc:format>image/svg+xml</dc:format>
        <dc:type
           rdf:resource="http://purl.org/dc/dcmitype/StillImage" />
        <dc:title></dc:title>
      </cc:Work>
    </rdf:RDF>
  </metadata>
  <g
     inkscape:label="Layer 1"
     inkscape:groupmode="layer"
     id="layer1">
    <g
       id="g905"
       transform="matrix(3.1125229,0,0,3.1125229,-366.63974,22.884958)">
      <path
         style="fill:#ef9c3d;stroke-width:0.264583"
         d="m 150.05299,19.969381 c -2.94053,-0.4395 -4.56453,-0.811332 -6.61459,-1.51447 -2.39349,-0.820936 -6.70057,-2.916029 -8.33685,-4.055295 -1.98671,-1.383255 -4.49325,-3.407857 -4.49445,-3.630292 -0.003,-0.548675 0.7607,-0.335556 3.4763,0.970142 4.30396,2.069407 7.48967,3.147848 12.26542,4.152148 3.32295,0.698791 12.31058,0.986423 15.44453,0.494274 3.2808,-0.515207 8.29533,-1.776254 10.60479,-2.666876 2.13192,-0.822155 2.92256,-0.869622 2.92256,-0.175458 0,1.482502 -7.09109,4.778475 -12.96459,6.026001 -3.26162,0.692767 -9.07842,0.881798 -12.30312,0.399826 z m 25.79687,-2.086356 c 0,-0.21118 0.17997,-0.814684 0.39993,-1.34112 0.78269,-1.873237 1.17889,-3.858369 0.9108,-4.563499 -0.25408,-0.668272 -0.25659,-0.668724 -3.34661,-0.60234 -3.46937,0.07453 -4.07985,-0.227087 -2.15484,-1.064628 2.55271,-1.1106465 6.29059,-1.3332351 7.50288,-0.446791 1.01173,0.739799 0.21292,4.345112 -1.544,6.968641 -0.83408,1.245478 -1.76816,1.800034 -1.76816,1.049737 z"
         id="path909"
         sodipodi:nodetypes="ssscsssssssssssssss" />
      <path
         style="fill:#282828;stroke-width:0.264583"
         d="m 121.03774,8.6927281 c -2.11568,-0.3566557 -3.23296,-1.8116814 -3.24266,-4.2228743 -0.007,-1.7358703 0.75656,-3.2787859 2.06689,-4.17663351 0.8915,-0.61086786 3.8528,-1.36682899 5.38633,-1.37502209 0.80851,-0.00432 0.8599,-0.060972 0.8599,-0.9480298 0,-1.88156 -1.14351,-2.7710381 -2.84184,-2.210536 -0.66035,0.2179335 -1.02111,0.5589571 -1.30168,1.2304468 -0.36689,0.8780854 -0.44155,0.920123 -1.36346,0.7676925 -0.53642,-0.088693 -1.24694,-0.1625708 -1.57893,-0.1641723 -0.88135,-0.00425 -0.98114,-0.6265646 -0.31961,-1.9930994 1.76414,-3.6442241 8.94358,-4.0131575 10.91633,-0.5609618 0.20347,0.3560606 0.37339,2.2389972 0.45705,5.06469075 0.1253,4.23183565 0.17128,4.55133595 0.7772,5.40091825 l 0.64403,0.9030044 -1.30549,1.1420766 c -0.71801,0.6281419 -1.44197,1.1445239 -1.6088,1.1475164 -0.16682,0.00299 -0.6736,-0.4162796 -1.12616,-0.931717 l -0.82283,-0.9371621 -1.01276,0.8138742 c -1.11794,0.898398 -2.96829,1.322279 -4.58351,1.0499884 z m 3.69018,-3.0483095 c 0.88849,-0.6223238 1.38028,-1.7902952 1.38028,-3.2780922 0,-1.2095876 -0.0563,-1.3359161 -0.59532,-1.3345802 -2.15356,0.00534 -3.63802,1.2068606 -3.63802,2.9446227 0,1.767414 1.47773,2.6313711 2.85306,1.6680497 z m 63.29106,3.091553 c -3.33611,-1.092327 -4.93381,-3.9683028 -4.70728,-8.47344827 0.23658,-4.70516653 2.54181,-7.42271423 6.2965,-7.42271423 3.88826,0 6.40986,3.1592365 6.40812,8.02856825 -2.6e-4,1.03492565 -0.12972,2.35976575 -0.28746,2.94408745 -0.45669,1.691767 -1.72402,3.4497962 -3.04495,4.2239088 -1.28151,0.7510144 -3.49435,1.0828734 -4.66493,0.699598 z m 2.72274,-3.2101393 c 1.57288,-1.237226 1.68982,-8.0554391 0.15992,-9.3242074 -1.51889,-1.2596389 -3.04486,-0.1327367 -3.42148,2.5267041 -0.27373,1.93285923 0.0687,5.5436456 0.59187,6.2413836 0.91293,1.2175013 1.6371,1.3683535 2.66969,0.5561197 z M 133.70411,8.5379891 C 133.60094,8.4348202 133.51653,4.9120017 133.51653,0.70950114 V -6.9314068 l 1.78594,0.078235 1.78593,0.078235 0.0845,1.0320194 0.0845,1.0320194 0.49912,-0.8207369 c 0.74039,-1.2174725 1.90932,-1.7223472 3.65295,-1.5777516 1.20637,0.1000408 1.57935,0.2584076 2.17273,0.9225134 0.394,0.4409564 0.77185,0.9652836 0.83968,1.165171 0.0851,0.2509353 0.3508,0.094318 0.85821,-0.505967 0.97295,-1.1510255 1.98515,-1.6441427 3.37483,-1.6441427 1.47596,0 2.81875,0.7327135 3.43164,1.8725263 0.44105,0.8202197 0.48039,1.5167435 0.41732,7.3878901 l -0.0696,6.4822915 h -1.71979 -1.7198 L 148.8624,2.9883546 c -0.13685,-5.7750388 -0.22975,-6.2413344 -1.31186,-6.5847834 -0.68289,-0.2167403 -1.77713,0.2736646 -2.17778,0.9760143 -0.24005,0.4208155 -0.38754,2.23698322 -0.47911,5.8996441 l -0.13229,5.2916665 h -1.71979 -1.71979 l -0.13229,-5.4239582 c -0.0902,-3.69961864 -0.23987,-5.6122219 -0.47066,-6.0161467 -0.66174,-1.1581344 -2.29669,-1.0137349 -3.02901,0.2675231 -0.22771,0.3983966 -0.37964,2.30316952 -0.46908,5.8809153 l -0.1323,5.2916665 -1.59835,0.077335 c -0.8791,0.042534 -1.68277,-0.00706 -1.78594,-0.1102413 z m 23.75721,-0.087223 c -2.55723,-1.0577406 -3.02473,-5.2392076 -0.85151,-7.61622867 0.73509,-0.80402798 2.96699,-1.60083098 5.09463,-1.81881378 1.99232,-0.20411885 2.19725,-0.43226595 1.74479,-1.94244115 -0.40677,-1.3576799 -1.41347,-1.8041595 -2.78028,-1.2330718 -0.57329,0.239535 -1.06667,0.6771635 -1.22096,1.0830004 -0.33021,0.8685101 -0.63079,0.9655037 -2.25125,0.7264651 -1.1559,-0.1705099 -1.33279,-0.27956 -1.40113,-0.8637796 -0.0974,-0.8324646 0.86467,-2.2982054 2.01906,-3.0761471 1.91455,-1.2902183 5.52732,-1.4215054 7.57101,-0.2751283 1.84559,1.0352548 2.08226,1.7673704 2.24846,6.95554219 0.12278,3.83251091 0.21939,4.63616691 0.60895,5.06585551 0.25466,0.2808896 0.46302,0.6637522 0.46302,0.8508021 0,0.4722812 -2.14927,2.3722567 -2.69851,2.385515 -0.24726,0.00595 -0.75855,-0.3942636 -1.13621,-0.8894022 l -0.68666,-0.9002553 -1.33777,0.9002553 c -1.19894,0.8068231 -1.52036,0.8985118 -3.09712,0.8834808 -0.96764,-0.00923 -1.99748,-0.1152657 -2.28852,-0.2356485 z m 4.44174,-2.6805413 c 0.90194,-0.4109508 1.52842,-1.6240786 1.70069,-3.2932766 l 0.14931,-1.4466781 -0.89691,0.00581 c -1.53107,0.00992 -3.04419,0.868788 -3.39309,1.925965 -0.37436,1.1343111 -0.14091,2.1850138 0.60091,2.7046052 0.6654,0.4660635 1.00192,0.4850156 1.83909,0.1035745 z m 36.62397,2.7677638 C 198.42386,8.4348202 198.33945,4.9120017 198.33945,0.70950114 V -6.9314068 l 1.78593,0.078235 1.78594,0.078235 0.13229,1.1425414 0.13229,1.1425417 0.5157,-0.9645483 c 0.64508,-1.2065444 1.61038,-1.7176911 3.24148,-1.7164208 1.53725,0.00119 2.7743,0.6864689 3.43988,1.9055394 0.42143,0.7718978 0.47586,1.6130818 0.47586,7.353888 v 6.4822915 l -1.6957,0.079862 c -1.17756,0.055462 -1.76246,-0.025373 -1.91418,-0.2645833 -0.12016,-0.1894443 -0.2203,-2.630797 -0.22253,-5.4252256 -0.004,-5.2917046 -0.17248,-6.2784429 -1.12204,-6.5798203 -0.75254,-0.2388481 -1.93997,0.3520818 -2.33354,1.1612964 -0.22854,0.4698857 -0.3966,2.45322511 -0.49735,5.8690961 l -0.15216,5.1593749 -1.59836,0.077335 c -0.87909,0.042534 -1.68277,-0.00706 -1.78593,-0.1102413 z M 170.5582,6.4267359 V 4.6794488 l 2.91041,-4.17834486 c 1.60073,-2.29809004 2.91042,-4.25024904 2.91042,-4.33813094 0,-0.087882 -1.19063,-0.1597856 -2.64583,-0.1597856 h -2.64584 v -1.4552083 -1.4552083 h 5.15938 5.15937 v 1.3345887 c 0,1.2598993 -0.1421,1.5363608 -2.53917,4.93994853 -1.39655,1.98294777 -2.59346,3.74682617 -2.65981,3.91973137 -0.0825,0.2149448 0.42081,0.357833 1.5913,0.4517892 0.94157,0.075581 2.16825,0.3602778 2.72596,0.6326584 0.99801,0.4874234 1.01526,0.5213483 1.09279,2.1488876 0.0433,0.9095052 -0.0203,1.6536458 -0.14147,1.6536458 -0.12112,0 -0.89774,-0.238125 -1.7258,-0.5291667 -2.04709,-0.7194946 -5.24554,-0.7195528 -7.13835,-1.323e-4 -2.04597,0.7776316 -2.05336,0.7732475 -2.05336,-1.2179855 z"
         id="path907" />
    </g>
  </g>
</svg>
