<?xml version="1.0" encoding="UTF-8" standalone="no"?>
<svg
   xmlns:dc="http://purl.org/dc/elements/1.1/"
   xmlns:cc="http://creativecommons.org/ns#"
   xmlns:rdf="http://www.w3.org/1999/02/22-rdf-syntax-ns#"
   xmlns:svg="http://www.w3.org/2000/svg"
   xmlns="http://www.w3.org/2000/svg"
   xmlns:sodipodi="http://sodipodi.sourceforge.net/DTD/sodipodi-0.dtd"
   xmlns:inkscape="http://www.inkscape.org/namespaces/inkscape"
   version="1.1"
   id="svg2"
   width="50"
   height="50"
   viewBox="0 0 50 50.000001"
   sodipodi:docname="mail_green.svg"
   inkscape:version="1.0.1 (3bc2e813f5, 2020-09-07)">
  <metadata
     id="metadata8">
    <rdf:RDF>
      <cc:Work
         rdf:about="">
        <dc:format>image/svg+xml</dc:format>
        <dc:type
           rdf:resource="http://purl.org/dc/dcmitype/StillImage" />
        <dc:title></dc:title>
      </cc:Work>
    </rdf:RDF>
  </metadata>
  <defs
     id="defs6" />
  <sodipodi:namedview
     pagecolor="#ffffff"
     bordercolor="#666666"
     borderopacity="1"
     objecttolerance="10"
     gridtolerance="10"
     guidetolerance="10"
     inkscape:pageopacity="0"
     inkscape:pageshadow="2"
     inkscape:window-width="885"
     inkscape:window-height="766"
     id="namedview4"
     showgrid="false"
     inkscape:zoom="3.8298805"
     inkscape:cx="12.301541"
     inkscape:cy="57.726354"
     inkscape:window-x="0"
     inkscape:window-y="0"
     inkscape:window-maximized="0"
     inkscape:current-layer="g10"
     inkscape:document-rotation="0" />
  <g
     inkscape:groupmode="layer"
     inkscape:label="Image"
     id="g10">
    <path
       id="path839"
       style="fill:#86bc24;fill-opacity:1;stroke-width:15.1973;stroke-linecap:round;stroke-linejoin:round;paint-order:stroke fill markers"
       d="M 24.832031 0 A 25 25 0 0 0 0 25 A 25 25 0 0 0 25 50 A 25 25 0 0 0 50 25 A 25 25 0 0 0 25 0 A 25 25 0 0 0 24.832031 0 z M 13.076172 13.429688 C 14.090316 13.451837 15.111743 13.525364 16.113281 13.445312 C 23.935387 13.470073 31.76525 13.367321 39.582031 13.548828 C 39.849638 14.848813 37.440242 15.904625 36.607422 17.078125 C 33.072488 20.424049 29.542143 23.775965 25.935547 27.044922 C 25.475272 27.307416 24.905395 27.354264 24.402344 27.197266 C 22.465697 25.834218 20.923761 23.983418 19.148438 22.419922 C 16.113817 19.533966 13.072439 16.654538 10.080078 13.724609 C 11.055444 13.436921 12.062028 13.407538 13.076172 13.429688 z M 40.941406 15.25 C 41.390597 16.880426 41.024529 18.680008 41.164062 20.380859 C 41.162262 25.198587 41.281211 30.026914 41.121094 34.837891 L 41.023438 34.865234 L 40.765625 34.576172 C 37.531497 31.329545 34.124914 28.259714 30.873047 25.03125 C 34.157483 21.697896 37.6936 18.62033 40.941406 15.25 z M 8.8496094 15.310547 C 10.528353 16.340963 11.726451 18.077273 13.275391 19.332031 C 15.226107 21.183289 17.198814 23.011325 19.113281 24.900391 C 15.92701 28.406881 12.152082 31.357117 9 34.882812 L 8.9277344 34.869141 L 8.8496094 34.675781 C 8.7835964 28.220812 8.7832234 21.765512 8.8496094 15.310547 z M 20.507812 26.259766 C 22.039677 27.326992 23.088225 29.40251 25.072266 29.615234 C 27.141167 29.488434 27.916252 26.858157 29.765625 26.494141 C 33.096817 29.757139 36.573283 32.953411 39.914062 36.240234 C 38.110974 36.870616 36.149426 36.371057 34.28125 36.548828 C 26.411785 36.541428 18.539632 36.633762 10.671875 36.482422 L 10.412109 36.429688 C 10.342919 34.856822 13.217438 33.595977 14.25 32.123047 C 16.325097 30.157067 18.395751 28.186185 20.507812 26.259766 z " />
  </g>
</svg>
