<?xml version="1.0" encoding="UTF-8" standalone="no"?>
<svg
   xmlns:dc="http://purl.org/dc/elements/1.1/"
   xmlns:cc="http://creativecommons.org/ns#"
   xmlns:rdf="http://www.w3.org/1999/02/22-rdf-syntax-ns#"
   xmlns:svg="http://www.w3.org/2000/svg"
   xmlns="http://www.w3.org/2000/svg"
   xmlns:sodipodi="http://sodipodi.sourceforge.net/DTD/sodipodi-0.dtd"
   xmlns:inkscape="http://www.inkscape.org/namespaces/inkscape"
   version="1.1"
   id="svg2"
   width="50"
   height="50"
   viewBox="0 0 50 50.000001"
   sodipodi:docname="phone_green.svg"
   inkscape:version="1.0.1 (3bc2e813f5, 2020-09-07)">
  <metadata
     id="metadata8">
    <rdf:RDF>
      <cc:Work
         rdf:about="">
        <dc:format>image/svg+xml</dc:format>
        <dc:type
           rdf:resource="http://purl.org/dc/dcmitype/StillImage" />
        <dc:title></dc:title>
      </cc:Work>
    </rdf:RDF>
  </metadata>
  <defs
     id="defs6" />
  <sodipodi:namedview
     pagecolor="#ffffff"
     bordercolor="#666666"
     borderopacity="1"
     objecttolerance="10"
     gridtolerance="10"
     guidetolerance="10"
     inkscape:pageopacity="0"
     inkscape:pageshadow="2"
     inkscape:window-width="885"
     inkscape:window-height="766"
     id="namedview4"
     showgrid="false"
     inkscape:zoom="3.033829"
     inkscape:cx="20.258959"
     inkscape:cy="3.643005"
     inkscape:window-x="0"
     inkscape:window-y="0"
     inkscape:window-maximized="0"
     inkscape:current-layer="g10"
     inkscape:document-rotation="0" />
  <g
     inkscape:groupmode="layer"
     inkscape:label="Image"
     id="g10">
    <path
       id="path865"
       style="fill:#86bc24;stroke-width:15.1973;stroke-linecap:round;stroke-linejoin:round;paint-order:stroke fill markers;fill-opacity:1"
       d="M 24.832031 0 A 25 25 0 0 0 6.3066406 8.4003906 A 25 25 0 0 0 5.8183594 8.96875 A 25 25 0 0 0 5.2421875 9.6835938 A 25 25 0 0 0 5.234375 9.6953125 C 5.2117698 9.7247552 5.1865096 9.7516627 5.1640625 9.78125 C 5.1424129 9.8097862 5.1230689 9.8404738 5.1015625 9.8691406 C 5.0971244 9.8750564 5.0923228 9.8807975 5.0878906 9.8867188 A 25 25 0 0 0 3.4042969 12.40625 A 25 25 0 0 0 0 25 A 25 25 0 0 0 1.1269531 32.419922 A 25 25 0 0 0 25 50 A 25 25 0 0 0 46.285156 38.113281 A 25 25 0 0 0 50 25 A 25 25 0 0 0 43.095703 7.75 A 25 25 0 0 0 42.439453 7.0898438 C 42.426716 7.0771258 42.41315 7.0654209 42.400391 7.0527344 C 42.395146 7.0475193 42.390015 7.0423187 42.384766 7.0371094 A 25 25 0 0 0 41.728516 6.4238281 A 25 25 0 0 0 40.527344 5.4082031 A 25 25 0 0 0 25 0 A 25 25 0 0 0 24.832031 0 z M 15.65625 10.839844 C 15.930562 10.839844 16.380895 11.121681 16.886719 11.578125 C 17.392543 12.034569 17.952186 12.664874 18.445312 13.357422 C 19.17847 14.387028 19.602709 15.182049 19.787109 16.091797 C 19.97151 17.001545 19.916368 18.026513 19.693359 19.513672 C 19.564784 20.371023 19.478293 21.040071 19.470703 21.615234 C 19.463113 22.190397 19.534259 22.670633 19.720703 23.152344 C 20.093591 24.115765 20.928303 25.080705 22.515625 26.802734 C 23.446761 27.812901 24.292222 28.636836 25.058594 29.275391 C 25.824966 29.913945 26.512292 30.368977 27.128906 30.642578 C 27.745521 30.916179 28.291573 31.00852 28.773438 30.923828 C 29.255301 30.839136 29.673036 30.576951 30.035156 30.140625 C 30.370385 29.736694 30.754924 29.444514 31.197266 29.265625 C 31.639607 29.086736 32.138633 29.020942 32.703125 29.068359 C 33.832108 29.163194 35.221877 29.711109 36.929688 30.71875 C 37.814686 31.240912 38.483267 31.693281 38.943359 32.123047 C 39.403452 32.552813 39.654108 32.960068 39.699219 33.392578 C 39.744329 33.825088 39.584558 34.284058 39.224609 34.814453 C 38.86466 35.344848 38.305866 35.946501 37.550781 36.669922 C 36.82955 37.36087 36.100304 37.883239 35.332031 38.238281 C 34.563759 38.593323 33.756099 38.781969 32.871094 38.802734 C 31.986088 38.823499 31.024555 38.677117 29.953125 38.365234 C 28.881695 38.053352 27.700593 37.576495 26.373047 36.933594 C 24.509731 36.031227 22.564056 34.703332 20.695312 33.138672 C 18.826569 31.574011 17.034609 29.771616 15.474609 27.917969 C 13.914609 26.064321 12.587476 24.159952 11.650391 22.390625 C 11.181848 21.505962 10.810548 20.654916 10.556641 19.861328 C 10.302734 19.06774 10.166016 18.331631 10.166016 17.675781 C 10.166016 17.195267 10.412563 16.527883 10.806641 15.796875 C 11.200718 15.065867 11.742285 14.27153 12.332031 13.537109 C 12.921777 12.802689 13.559479 12.12747 14.146484 11.636719 C 14.73349 11.145968 15.270395 10.839844 15.65625 10.839844 z " />
  </g>
</svg>
