<?xml version="1.0" encoding="UTF-8" standalone="no"?>
<svg
   xmlns:dc="http://purl.org/dc/elements/1.1/"
   xmlns:cc="http://creativecommons.org/ns#"
   xmlns:rdf="http://www.w3.org/1999/02/22-rdf-syntax-ns#"
   xmlns:svg="http://www.w3.org/2000/svg"
   xmlns="http://www.w3.org/2000/svg"
   xmlns:sodipodi="http://sodipodi.sourceforge.net/DTD/sodipodi-0.dtd"
   xmlns:inkscape="http://www.inkscape.org/namespaces/inkscape"
   version="1.1"
   id="svg2"
   width="49.279999"
   height="19.200001"
   viewBox="0 0 49.279999 19.200001"
   sodipodi:docname="logo.svg"
   inkscape:version="1.0.1 (3bc2e813f5, 2020-09-07)">
  <metadata
     id="metadata8">
    <rdf:RDF>
      <cc:Work
         rdf:about="">
        <dc:format>image/svg+xml</dc:format>
        <dc:type
           rdf:resource="http://purl.org/dc/dcmitype/StillImage" />
        <dc:title />
      </cc:Work>
    </rdf:RDF>
  </metadata>
  <defs
     id="defs6" />
  <sodipodi:namedview
     pagecolor="#ffffff"
     bordercolor="#666666"
     borderopacity="1"
     objecttolerance="10"
     gridtolerance="10"
     guidetolerance="10"
     inkscape:pageopacity="0"
     inkscape:pageshadow="2"
     inkscape:window-width="1159"
     inkscape:window-height="766"
     id="namedview4"
     showgrid="false"
     inkscape:zoom="8.6685947"
     inkscape:cx="19.317729"
     inkscape:cy="22.60348"
     inkscape:window-x="0"
     inkscape:window-y="0"
     inkscape:window-maximized="0"
     inkscape:current-layer="g10"
     inkscape:document-rotation="0" />
  <g
     inkscape:groupmode="layer"
     inkscape:label="Image"
     id="g10">
    <path
       id="path885"
       style="font-style:normal;font-variant:normal;font-weight:normal;font-stretch:normal;font-size:10.3918px;line-height:1.25;font-family:ubuntu;-inkscape-font-specification:ubuntu;fill:#000000;fill-opacity:1;stroke:none;stroke-width:0.259797"
       d="m 18.626953,4.5912113 -0.966797,0.1660156 v 6.4843741 c 0,0.512662 0.125597,0.890338 0.375,1.132813 0.249404,0.242478 0.671782,0.370912 1.267578,0.384766 L 19.4375,11.948633 c -0.152413,-0.02078 -0.280848,-0.04455 -0.384766,-0.07227 -0.103916,-0.03464 -0.187646,-0.08413 -0.25,-0.146484 -0.06235,-0.06235 -0.107052,-0.144129 -0.134765,-0.248047 -0.02771,-0.103918 -0.04102,-0.237143 -0.04102,-0.396485 z m 29.783203,0 -0.966797,0.1660156 v 6.4843741 c 0,0.512662 0.125598,0.890338 0.375,1.132813 0.249404,0.242478 0.671782,0.370912 1.267579,0.384766 l 0.134765,-0.810547 c -0.152413,-0.02078 -0.280848,-0.04455 -0.384765,-0.07227 -0.103916,-0.03464 -0.187647,-0.08413 -0.25,-0.146484 -0.06235,-0.06235 -0.107053,-0.144129 -0.134766,-0.248047 -0.02771,-0.103918 -0.04102,-0.237143 -0.04102,-0.396485 z M 22.751953,7.1166015 c -0.367177,0 -0.705824,0.068474 -1.017578,0.207032 -0.311754,0.131629 -0.581927,0.322862 -0.810547,0.572265 -0.221691,0.249403 -0.394829,0.550976 -0.519531,0.904297 -0.124701,0.346393 -0.1875,0.731697 -0.1875,1.154297 0,0.4295275 0.0628,0.8157155 0.1875,1.1621085 0.124702,0.346394 0.29784,0.645129 0.519531,0.894532 0.22862,0.249403 0.498793,0.443474 0.810547,0.582031 0.311754,0.131629 0.650401,0.197266 1.017578,0.197266 0.367177,0 0.707777,-0.06564 1.019531,-0.197266 0.311754,-0.138557 0.577137,-0.332628 0.798828,-0.582031 0.22862,-0.249403 0.406549,-0.548138 0.53125,-0.894532 0.124702,-0.346393 0.1875,-0.732581 0.1875,-1.1621085 0,-0.4226 -0.0628,-0.807904 -0.1875,-1.154297 -0.124702,-0.353321 -0.30263,-0.654894 -0.53125,-0.904297 -0.221691,-0.249403 -0.487074,-0.440636 -0.798828,-0.572265 -0.311754,-0.138558 -0.652354,-0.207032 -1.019531,-0.207032 z m 12.138672,0 c -0.367177,0 -0.707777,0.068474 -1.019531,0.207032 -0.311754,0.131629 -0.581928,0.322862 -0.810547,0.572265 -0.221692,0.249403 -0.39483,0.550976 -0.519531,0.904297 -0.124702,0.346393 -0.185547,0.731697 -0.185547,1.154297 0,0.4295275 0.06085,0.8157155 0.185547,1.1621085 0.124701,0.346394 0.297839,0.645129 0.519531,0.894532 0.228619,0.249403 0.498793,0.443474 0.810547,0.582031 0.311754,0.131629 0.652354,0.197266 1.019531,0.197266 0.367177,0 0.705824,-0.06564 1.017578,-0.197266 0.311754,-0.138557 0.579089,-0.332628 0.800781,-0.582031 0.22862,-0.249403 0.404596,-0.548138 0.529297,-0.894532 0.124702,-0.346393 0.1875,-0.732581 0.1875,-1.1621085 0,-0.4226 -0.0628,-0.807904 -0.1875,-1.154297 -0.124701,-0.353321 -0.300677,-0.654894 -0.529297,-0.904297 -0.221692,-0.249403 -0.489027,-0.440636 -0.800781,-0.572265 -0.311754,-0.138558 -0.650401,-0.207032 -1.017578,-0.207032 z m -5.923828,0.021485 c -0.408744,0 -0.775953,0.068474 -1.101563,0.207031 -0.32561,0.131629 -0.603412,0.318072 -0.832031,0.560547 -0.221692,0.235548 -0.390038,0.520978 -0.507812,0.853516 -0.117774,0.32561 -0.177735,0.68519 -0.177735,1.080078 0,0.4503105 0.0628,0.8384515 0.1875,1.1640615 0.124702,0.325609 0.295003,0.598621 0.509766,0.820313 0.214764,0.214764 0.464004,0.374597 0.748047,0.478515 0.29097,0.103918 0.598219,0.15625 0.923828,0.15625 0.318682,0 0.596484,-0.04187 0.832031,-0.125 0.242475,-0.09006 0.405147,-0.163323 0.488281,-0.21875 v 0.228516 c 0,0.498807 -0.128434,0.863177 -0.384765,1.091797 -0.249404,0.228619 -0.661316,0.34375 -1.236328,0.34375 -0.304826,0 -0.59877,-0.0314 -0.882813,-0.09375 -0.277115,-0.05542 -0.513051,-0.121059 -0.707031,-0.197266 l -0.175781,0.841797 c 0.221692,0.07621 0.481399,0.141846 0.779297,0.197266 0.304825,0.05542 0.625378,0.08203 0.964843,0.08203 0.872912,0 1.52555,-0.186442 1.955078,-0.560547 0.429528,-0.374105 0.644532,-0.97725 0.644532,-1.808594 V 7.4173835 c -0.22862,-0.055421 -0.514051,-0.113428 -0.853516,-0.175782 -0.332538,-0.069278 -0.723517,-0.103515 -1.173828,-0.103515 z m 14.423828,0 c -0.450311,0 -0.848919,0.034237 -1.195313,0.103515 -0.339465,0.062354 -0.622943,0.120362 -0.851562,0.175782 v 7.1601555 h 0.966797 v -2.160156 c 0.117774,0.07621 0.293749,0.155146 0.529297,0.238281 0.242475,0.08314 0.520277,0.125 0.832031,0.125 0.387961,0 0.729446,-0.07043 1.027344,-0.208984 0.304826,-0.138558 0.561695,-0.332628 0.769531,-0.582032 0.207836,-0.249403 0.364832,-0.546185 0.46875,-0.892578 0.110845,-0.346393 0.166016,-0.724068 0.166016,-1.1328115 0,-0.436456 -0.06564,-0.827435 -0.197266,-1.173828 -0.124701,-0.353321 -0.305468,-0.652056 -0.541016,-0.894532 -0.235548,-0.242475 -0.519025,-0.428917 -0.851562,-0.560547 -0.332537,-0.131629 -0.707375,-0.197265 -1.123047,-0.197265 z m -20.638672,0.830078 c 0.471095,0 0.843094,0.180766 1.113281,0.541016 0.277115,0.353321 0.414063,0.83566 0.414063,1.445312 0,0.6096515 -0.136948,1.0928755 -0.414063,1.4531245 -0.270187,0.353321 -0.642186,0.53125 -1.113281,0.53125 -0.471095,0 -0.843979,-0.177929 -1.121094,-0.53125 -0.270186,-0.360249 -0.40625,-0.843473 -0.40625,-1.4531245 0,-0.609652 0.136064,-1.091991 0.40625,-1.445312 0.277115,-0.36025 0.649999,-0.541016 1.121094,-0.541016 z m 12.138672,0 c 0.471095,0 0.841141,0.180766 1.111328,0.541016 0.277115,0.353321 0.416016,0.83566 0.416016,1.445312 0,0.6096515 -0.138901,1.0928755 -0.416016,1.4531245 -0.270187,0.353321 -0.640233,0.53125 -1.111328,0.53125 -0.471095,0 -0.845932,-0.177929 -1.123047,-0.53125 -0.270187,-0.360249 -0.404297,-0.843473 -0.404297,-1.4531245 0,-0.609652 0.13411,-1.091991 0.404297,-1.445312 0.277115,-0.36025 0.651952,-0.541016 1.123047,-0.541016 z m -5.914063,0.021484 c 0.277115,0 0.496909,0.013303 0.65625,0.041016 0.166269,0.02078 0.297542,0.044552 0.394532,0.072266 v 3.1601555 c -0.124702,0.09699 -0.295002,0.183559 -0.509766,0.259765 -0.214764,0.06928 -0.4507,0.103516 -0.707031,0.103516 -0.187052,0 -0.370657,-0.03424 -0.550781,-0.103516 -0.173197,-0.06928 -0.32824,-0.17678 -0.466797,-0.322265 -0.13163,-0.145486 -0.239131,-0.32909 -0.322266,-0.550782 -0.07621,-0.221692 -0.115234,-0.489027 -0.115234,-0.8007805 0,-0.561157 0.138901,-1.010144 0.416015,-1.349609 0.284043,-0.339465 0.685489,-0.509766 1.205078,-0.509766 z m 14.404297,0.00977 c 0.51959,0 0.93434,0.1703 1.246094,0.509766 0.311754,0.339465 0.46875,0.824642 0.46875,1.455078 0,0.2771135 -0.02856,0.5368205 -0.08398,0.7792955 -0.05542,0.235548 -0.14483,0.442923 -0.269531,0.623047 -0.124703,0.173197 -0.287374,0.312098 -0.488282,0.416016 -0.19398,0.09699 -0.429916,0.144531 -0.707031,0.144531 -0.263259,0 -0.506824,-0.0447 -0.728516,-0.134765 -0.221692,-0.09006 -0.390038,-0.182307 -0.507812,-0.279297 V 8.1029305 c 0.09699,-0.027707 0.225425,-0.051479 0.384765,-0.072266 0.166269,-0.02078 0.394577,-0.03125 0.685547,-0.03125 z m -4.146484,3.3984365 c -0.214763,0 -0.385064,0.07043 -0.509766,0.208985 -0.124701,0.138557 -0.1875,0.301228 -0.1875,0.488281 0,0.187052 0.0628,0.349724 0.1875,0.488281 0.124702,0.138558 0.295003,0.207032 0.509766,0.207032 0.214764,-1e-6 0.383111,-0.06847 0.507813,-0.207032 0.124701,-0.138557 0.1875,-0.301229 0.1875,-0.488281 -10e-7,-0.187053 -0.0628,-0.349724 -0.1875,-0.488281 -0.124702,-0.138558 -0.293049,-0.208985 -0.507813,-0.208985 z" />
    <g
       id="g865"
       transform="matrix(0.72888072,-0.72888072,0.72888072,0.72888072,-5.5304166,10.317761)">
      <rect
         style="fill:#00bd95;fill-opacity:1;stroke-width:15.1181;stroke-linecap:round;stroke-linejoin:round;paint-order:stroke fill markers"
         id="rect843"
         width="4.3723068"
         height="4.3723068"
         x="2.4444683"
         y="5.8320317" />
      <path
         id="rect845"
         style="fill:#00b2d8;fill-opacity:1;stroke-width:15.1181;stroke-linecap:round;stroke-linejoin:round;paint-order:stroke fill markers"
         d="m 2.4444688,10.204339 h 4.3723064 v 4.372307 z"
         sodipodi:nodetypes="cccc" />
      <path
         id="path848"
         style="fill:#fd6500;fill-opacity:1;stroke-width:15.1181;stroke-linecap:round;stroke-linejoin:round;paint-order:stroke fill markers"
         d="M 15.561388,5.8320322 H 11.189082 V 1.4597251 Z"
         sodipodi:nodetypes="cccc" />
      <rect
         style="fill:#ffc000;fill-opacity:1;stroke-width:15.1181;stroke-linecap:round;stroke-linejoin:round;paint-order:stroke fill markers"
         id="rect850"
         width="4.3723068"
         height="4.3723068"
         x="6.8167753"
         y="1.459725" />
      <rect
         style="fill:#fd0000;fill-opacity:1;stroke-width:15.1181;stroke-linecap:round;stroke-linejoin:round;paint-order:stroke fill markers"
         id="rect856"
         width="4.3723068"
         height="4.3723068"
         x="11.189082"
         y="5.8320322" />
      <rect
         style="fill:#81007b;fill-opacity:1;stroke-width:15.1181;stroke-linecap:round;stroke-linejoin:round;paint-order:stroke fill markers"
         id="rect852"
         width="4.3723068"
         height="4.3723068"
         x="6.8167753"
         y="10.204339" />
    </g>
  </g>
</svg>
