<?xml version="1.0" encoding="UTF-8" standalone="no"?>
<svg
   xmlns:dc="http://purl.org/dc/elements/1.1/"
   xmlns:cc="http://creativecommons.org/ns#"
   xmlns:rdf="http://www.w3.org/1999/02/22-rdf-syntax-ns#"
   xmlns:svg="http://www.w3.org/2000/svg"
   xmlns="http://www.w3.org/2000/svg"
   xmlns:sodipodi="http://sodipodi.sourceforge.net/DTD/sodipodi-0.dtd"
   xmlns:inkscape="http://www.inkscape.org/namespaces/inkscape"
   width="283.849mm"
   height="84.977997mm"
   viewBox="0 0 283.849 84.977997"
   version="1.1"
   id="svg8"
   inkscape:version="1.0.1 (3bc2e813f5, 2020-09-07)"
   sodipodi:docname="spotify.svg">
  <defs
     id="defs2" />
  <sodipodi:namedview
     id="base"
     pagecolor="#ffffff"
     bordercolor="#666666"
     borderopacity="1.0"
     inkscape:pageopacity="0.0"
     inkscape:pageshadow="2"
     inkscape:zoom="0.20365412"
     inkscape:cx="-26.218613"
     inkscape:cy="-214.68591"
     inkscape:document-units="mm"
     inkscape:current-layer="layer1"
     inkscape:document-rotation="0"
     showgrid="false"
     inkscape:window-width="1258"
     inkscape:window-height="728"
     inkscape:window-x="0"
     inkscape:window-y="0"
     inkscape:window-maximized="0" />
  <metadata
     id="metadata5">
    <rdf:RDF>
      <cc:Work
         rdf:about="">
        <dc:format>image/svg+xml</dc:format>
        <dc:type
           rdf:resource="http://purl.org/dc/dcmitype/StillImage" />
        <dc:title></dc:title>
      </cc:Work>
    </rdf:RDF>
  </metadata>
  <g
     inkscape:label="Layer 1"
     inkscape:groupmode="layer"
     id="layer1">
    <path
       style="fill:#1dd65f;stroke-width:0.240163"
       d="M 37.592196,84.744027 C 27.380722,83.558076 17.219717,78.229933 10.58587,70.582651 1.1523622,59.708036 -2.178976,45.495593 1.4114391,31.44188 2.5417488,27.017602 5.0058845,21.774784 7.8454557,17.752564 9.9097933,14.82844 14.813312,9.9237783 17.743599,7.8520978 23.512949,3.7732195 30.52983,1.057913 37.500999,0.20659578 40.904971,-0.20908741 47.453322,0.02846788 50.736906,0.68675319 71.353497,4.819966 85.826569,23.103001 85.064161,44.050455 84.380624,62.831084 71.38671,78.93767 53.082287,83.693559 48.594216,84.85966 42.276739,85.288084 37.592196,84.744027 Z m 23.58143,-22.634559 c 1.118691,-0.538414 1.555224,-2.223613 0.902812,-3.48523 -0.670467,-1.296557 -6.814009,-4.291627 -11.64925,-5.679189 -8.412548,-2.414139 -18.261339,-2.594727 -28.314173,-0.51917 -3.112209,0.642564 -3.766855,1.007542 -4.159836,2.319203 -0.383124,1.278764 0.141375,2.465996 1.342485,3.038767 0.792462,0.377904 0.980484,0.371078 3.545048,-0.128622 13.270482,-2.585714 23.875582,-1.563485 33.206518,3.200774 3.744925,1.912115 3.753521,1.914221 5.126396,1.253467 z M 66.208039,50.73272 c 1.375463,-0.857508 1.898527,-3.03018 1.069267,-4.441452 -1.119826,-1.905752 -9.05823,-5.483432 -16.174323,-7.289446 -5.474954,-1.389514 -7.972484,-1.658793 -15.467208,-1.66768 -5.638141,-0.0064 -7.455692,0.07452 -9.542232,0.426168 -3.289202,0.554389 -7.22332,1.505663 -8.25862,1.996949 -2.266529,1.07553 -2.336122,4.57335 -0.113872,5.722522 0.991567,0.512762 1.935689,0.468148 4.646711,-0.219556 4.305214,-1.092104 7.338181,-1.429543 12.907763,-1.43607 5.231073,-0.0064 7.416008,0.194975 11.888085,1.094165 5.119026,1.029273 10.310014,2.875317 14.059913,5.000053 1.128449,0.639397 2.263224,1.211976 2.521711,1.272393 0.670852,0.156806 1.819125,-0.05673 2.462805,-0.458046 z M 72.089491,37.381152 C 73.23918,36.504247 73.783367,35.25845 73.645133,33.819828 73.466905,31.96499 72.719301,31.229431 69.200804,29.447136 59.173191,24.36765 45.678089,21.871145 32.052104,22.57487 c -7.435877,0.384032 -15.59691,1.899825 -17.324924,3.217849 -2.087493,1.592203 -2.02281,4.837029 0.125653,6.30376 1.297645,0.885884 2.109605,0.901315 5.337428,0.101454 12.899966,-3.196626 30.288149,-2.074384 41.96591,2.7085 1.448623,0.59332 3.531227,1.574395 4.628006,2.180169 1.78196,0.984214 2.12647,1.091923 3.237681,1.012263 0.874973,-0.06272 1.487791,-0.275434 2.067633,-0.717713 z M 248.78081,70.695498 c -1.6684,-0.464182 -3.84261,-1.451448 -3.84261,-1.744826 0,-0.290403 2.12875,-4.878031 2.4344,-5.246314 0.17584,-0.211858 0.51435,-0.155443 1.36147,0.226872 0.74023,0.334071 1.63669,0.513007 2.61008,0.520978 1.70088,0.01389 2.45413,-0.403267 3.27054,-1.811424 l 0.50029,-0.862918 -4.70654,-11.265337 -4.7065,-11.265345 -3.02133,-0.06717 -3.02135,-0.06717 -0.0624,11.474962 -0.0624,11.474961 h -3.72254 -3.72253 l -0.0624,-11.467799 -0.0624,-11.467809 h -1.7989 -1.79889 v -3.216505 c 0,-3.670819 -0.10119,-3.508069 2.18111,-3.508069 h 1.42134 l 0.005,-1.380935 c 0.0171,-5.662268 2.69886,-9.025095 7.69784,-9.652791 1.80848,-0.22708 4.65046,-0.02278 6.45951,0.464355 l 0.96877,0.260856 v 3.098693 c 0,1.704288 -0.0891,3.153791 -0.19811,3.221135 -0.10896,0.06735 -0.83846,-0.04511 -1.62111,-0.249855 -1.97054,-0.515549 -3.99295,-0.348422 -4.78468,0.395377 -0.68569,0.644153 -1.14524,2.064755 -1.03522,3.200049 l 0.074,0.763196 5.76461,0.06417 5.76463,0.06418 3.82148,9.971068 c 2.10181,5.484086 3.90239,9.886224 4.00127,9.782519 0.0989,-0.103695 1.71754,-4.592539 3.59702,-9.975207 l 3.41721,-9.786659 h 3.79427 c 2.08685,0 3.84319,0.08106 3.90297,0.180125 0.15834,0.262426 -11.84397,31.124989 -12.79973,32.913039 -1.18931,2.224956 -2.43771,3.51671 -4.2709,4.419187 -1.43654,0.70721 -1.83393,0.791091 -4.01011,0.846479 -1.60717,0.04094 -2.85758,-0.06154 -3.73643,-0.306024 z M 130.97108,70.52847 c -0.063,-0.16511 -0.0866,-8.729936 -0.0525,-19.032952 l 0.0621,-18.732747 3.78258,-0.06617 3.78257,-0.06617 v 1.815326 1.815328 l 0.82925,-0.829253 c 2.14229,-2.142281 4.62635,-3.252975 7.69656,-3.441351 5.3412,-0.327726 10.42053,2.693595 12.8052,7.616883 3.08822,6.375796 1.98239,14.664216 -2.55929,19.182387 -2.75023,2.735993 -5.77402,3.975927 -9.64551,3.955222 -3.34597,-0.01788 -5.7603,-0.939537 -8.17433,-3.12046 l -0.95188,-0.859969 v 6.032031 6.032031 h -3.73007 c -2.76285,0 -3.75978,-0.07788 -3.84465,-0.300205 z m 18.34439,-15.080399 c 1.54401,-0.680824 2.99593,-2.180097 3.80039,-3.924341 0.61325,-1.329669 0.67761,-1.720073 0.67761,-4.110984 0,-2.407477 -0.0617,-2.775823 -0.69636,-4.152783 -2.28062,-4.948513 -8.39971,-6.145176 -12.16574,-2.379148 -3.92811,3.928118 -3.20274,11.291388 1.39208,14.131141 2.00784,1.240913 4.77541,1.413532 6.99202,0.436115 z m 26.57574,7.060942 c -5.68623,-1.201139 -10.37566,-5.721288 -11.79324,-11.367544 -0.58484,-2.329415 -0.37451,-6.524906 0.44295,-8.835494 1.59299,-4.502658 5.25335,-8.055104 9.87796,-9.586719 1.71761,-0.568849 2.32847,-0.646694 5.07478,-0.646694 2.74632,0 3.35717,0.07788 5.07478,0.646694 6.15096,2.037133 10.23342,7.341012 10.58731,13.754915 0.16821,3.048797 -0.30648,5.35639 -1.65685,8.05435 -3.05148,6.09666 -10.51394,9.478939 -17.60769,7.980492 z m 7.17497,-7.145712 c 6.28373,-3.074339 6.07903,-12.97015 -0.33032,-15.96818 -1.77758,-0.831475 -4.82008,-0.876307 -6.53657,-0.09631 -1.6861,0.766184 -3.37498,2.47127 -4.17499,4.215043 -0.60627,1.32149 -0.6857,1.765085 -0.67659,3.778809 0.0135,2.983261 0.62982,4.646384 2.35892,6.36543 1.93002,1.918787 3.55238,2.54298 6.30884,2.427274 1.27996,-0.05374 2.06393,-0.23928 3.05071,-0.722069 z M 109.40844,62.2724 c -2.5682,-0.550976 -5.4524,-1.687921 -7.51583,-2.962701 -2.0003,-1.235776 -3.934427,-2.781887 -3.934427,-3.145104 0,-0.262527 4.271377,-5.269478 4.495327,-5.269478 0.0869,0 0.76439,0.476437 1.50558,1.058746 1.60439,1.260484 3.99401,2.591361 5.62596,3.133332 3.30763,1.098459 7.29165,0.96685 9.25423,-0.305715 1.651,-1.070528 2.38667,-3.281187 1.597,-4.798905 -0.86298,-1.658621 -2.34648,-2.397946 -7.57075,-3.773009 -7.7361,-2.03619 -10.68859,-3.702626 -12.2516,-6.914982 -2.441674,-5.018235 -0.881385,-11.066486 3.66215,-14.195732 5.43297,-3.74183 14.7309,-3.153801 21.37577,1.351861 0.76768,0.520541 1.4514,1.091378 1.51938,1.268527 0.1568,0.408629 -3.49842,5.643941 -3.94053,5.643941 -0.18098,0 -0.80848,-0.329841 -1.39444,-0.732998 -4.87706,-3.355502 -10.96959,-4.021013 -13.61493,-1.487211 -1.2689,1.215399 -1.40161,3.504701 -0.28042,4.837165 0.78213,0.929509 3.33476,2.033912 6.70863,2.902504 4.16712,1.072824 5.76699,1.623482 7.88996,2.715678 4.50254,2.31638 6.4546,6.055858 5.73577,10.987751 -0.72697,4.987726 -4.28844,8.599138 -9.58749,9.721941 -2.10266,0.445519 -7.1266,0.426248 -9.27934,-0.03558 z m 95.33215,-0.0027 c -2.46657,-0.757452 -4.08846,-2.337129 -4.87658,-4.749707 -0.33275,-1.018608 -0.41559,-2.646312 -0.49867,-9.797297 l -0.0996,-8.575737 -1.72047,-0.07017 -1.72047,-0.07007 -0.0678,-2.982317 c -0.0373,-1.640276 0.0168,-3.064619 0.12009,-3.16521 0.10331,-0.100583 0.89032,-0.210261 1.7489,-0.24372 l 1.56106,-0.06082 0.12009,-3.858779 0.12008,-3.858777 h 3.72253 3.72253 l 0.12009,3.842621 0.12008,3.842612 3.48237,0.0511 c 1.9153,0.02805 3.61745,0.0551 3.78257,0.06 0.22489,0.0064 0.3002,0.822317 0.3002,3.251188 v 3.242202 h -3.84261 -3.84261 v 7.309352 c 0,4.06401 0.10187,7.577298 0.22944,7.912831 0.1262,0.33192 0.52675,0.798272 0.89012,1.036335 0.8616,0.564484 3.23122,0.550822 4.74514,-0.02732 1.76251,-0.673108 1.82052,-0.586105 1.82052,2.730165 v 2.885447 l -1.14077,0.574586 c -0.62743,0.316017 -1.71349,0.6961 -2.41345,0.84462 -1.75292,0.371921 -4.97312,0.309853 -6.38278,-0.123032 z M 217.79973,47.412419 V 32.642363 h 3.72253 3.72253 v 14.770056 14.770046 h -3.72253 -3.72253 z m 59.41256,-6.103303 c -2.29122,-1.040493 -3.27528,-3.971561 -2.11156,-6.289501 0.17253,-0.343639 0.69604,-0.960516 1.16338,-1.370834 2.48691,-2.183555 6.30736,-1.134531 7.34763,2.017527 1.25723,3.809445 -2.71796,7.314636 -6.39945,5.642808 z m 3.43458,-0.276306 c 2.93222,-1.107871 3.62363,-5.0577 1.23689,-7.066015 -2.04129,-1.71763 -5.07667,-1.06451 -6.34617,1.365487 -0.54196,1.037407 -0.4359,3.099066 0.20867,4.055532 1.05907,1.571553 3.19624,2.28894 4.90061,1.644996 z m -3.28661,-4.067504 v -2.401631 h 1.51576 c 1.19347,0 1.62755,0.104123 2.0414,0.489678 0.65984,0.614726 0.67377,1.523637 0.0332,2.164222 l -0.49244,0.492439 0.51203,0.828461 0.512,0.828471 -0.55994,-0.0027 c -0.37391,-0.0018 -0.74025,-0.281288 -1.10253,-0.840579 -0.74377,-1.148192 -1.49882,-1.146694 -1.49882,0.0027 0,0.68046 -0.0915,0.84057 -0.48032,0.84057 -0.44832,0 -0.48033,-0.16011 -0.48033,-2.401641 z m 2.87942,-0.357182 c 0.51394,-0.619263 0.10651,-1.083799 -0.95058,-1.083799 -0.91566,0 -0.96819,0.03912 -0.96819,0.72049 0,0.65834 0.07,0.720491 0.81118,0.720491 0.44613,0 0.94456,-0.160727 1.10759,-0.357182 z M 220.4981,28.787126 c -1.27045,-0.272711 -2.59445,-1.302192 -3.1496,-2.448987 -1.46591,-3.028164 0.48107,-6.495295 3.82661,-6.814326 1.60323,-0.152876 3.06096,0.512055 4.16503,1.899844 1.3325,1.674922 1.08377,4.824966 -0.49007,6.206355 -1.14755,1.007224 -2.89087,1.470744 -4.35197,1.157114 z"
       id="path845" />
  </g>
</svg>
