<?xml version="1.0" encoding="UTF-8" standalone="no"?>
<svg
   xmlns:dc="http://purl.org/dc/elements/1.1/"
   xmlns:cc="http://creativecommons.org/ns#"
   xmlns:rdf="http://www.w3.org/1999/02/22-rdf-syntax-ns#"
   xmlns:svg="http://www.w3.org/2000/svg"
   xmlns="http://www.w3.org/2000/svg"
   xmlns:sodipodi="http://sodipodi.sourceforge.net/DTD/sodipodi-0.dtd"
   xmlns:inkscape="http://www.inkscape.org/namespaces/inkscape"
   width="287.85001mm"
   height="81.000999mm"
   viewBox="0 0 287.85001 81.001"
   version="1.1"
   id="svg8"
   inkscape:version="1.0.1 (3bc2e813f5, 2020-09-07)"
   sodipodi:docname="discord.svg">
  <defs
     id="defs2" />
  <sodipodi:namedview
     id="base"
     pagecolor="#ffffff"
     bordercolor="#666666"
     borderopacity="1.0"
     inkscape:pageopacity="0.0"
     inkscape:pageshadow="2"
     inkscape:zoom="0.18035108"
     inkscape:cx="944.09298"
     inkscape:cy="394.2636"
     inkscape:document-units="mm"
     inkscape:current-layer="layer1"
     inkscape:document-rotation="0"
     showgrid="false"
     inkscape:window-width="817"
     inkscape:window-height="766"
     inkscape:window-x="0"
     inkscape:window-y="0"
     inkscape:window-maximized="0" />
  <metadata
     id="metadata5">
    <rdf:RDF>
      <cc:Work
         rdf:about="">
        <dc:format>image/svg+xml</dc:format>
        <dc:type
           rdf:resource="http://purl.org/dc/dcmitype/StillImage" />
        <dc:title />
      </cc:Work>
    </rdf:RDF>
  </metadata>
  <g
     inkscape:label="Layer 1"
     inkscape:groupmode="layer"
     id="layer1">
    <path
       style="fill:#008bd2;stroke-width:0.292532;fill-opacity:1"
       d="m 70.922336,80.488909 c -0.3119,-0.281605 -2.006494,-1.762547 -3.765764,-3.290986 -1.759266,-1.52844 -5.595886,-4.975852 -8.52582,-7.660896 -2.929934,-2.685055 -5.390682,-4.818387 -5.468329,-4.740738 -0.117098,0.117098 0.812981,3.582509 1.660086,6.185393 l 0.214213,0.658195 H 30.935195 c -26.9356723,0 -25.6515999,0.09464 -28.1141568,-2.072953 C 2.101591,68.933638 1.172814,67.732931 0.75708444,66.898663 L 0.00120655,65.381822 V 36.091868 c 0,-32.8377291 -0.1241959,-30.9117662 2.14751765,-33.3022591 C 2.817854,2.0854894 3.9577076,1.1958165 4.6817211,0.81255285 L 5.9981223,0.11570809 35.397623,0.03574863 c 29.128445,-0.0792187 29.41434,-0.07436496 31.008435,0.52633275 1.946098,0.73334722 3.19794,1.81773232 4.461489,3.86468662 l 0.950359,1.539589 0.07957,37.517273 c 0.04376,20.634507 -0.03014,37.517287 -0.16424,37.517287 -0.134093,0 -0.498998,-0.230403 -0.8109,-0.512008 z M 26.009351,51.487681 c 0.658549,-0.78657 1.197369,-1.495978 1.197369,-1.576457 0,-0.08049 -0.961228,-0.602803 -2.136053,-1.160728 -1.998201,-0.948944 -4.299656,-2.629442 -4.299656,-3.13957 0,-0.12403 1.020202,0.279095 2.267125,0.895818 8.444182,4.176489 19.475682,3.99061 27.49804,-0.46335 0.683795,-0.37963 1.243262,-0.577461 1.243262,-0.4396 0,0.494329 -2.234084,2.095675 -4.387986,3.145209 -1.206696,0.587976 -2.241189,1.100648 -2.298876,1.139268 -0.05769,0.03859 0.456569,0.736054 1.142789,1.549867 1.203045,1.426743 1.301854,1.47967 2.762494,1.47967 2.762404,0 6.96885,-1.756311 9.240337,-3.858089 1.960969,-1.814467 2.036067,-2.05827 1.742148,-5.655628 -0.633798,-7.757221 -3.867357,-18.24006 -6.320946,-20.491796 -1.93263,-1.773639 -7.506674,-3.928248 -10.162496,-3.928248 -1.761429,0 -1.19281,0.565153 1.762416,1.751675 2.523397,1.013143 6.041964,2.919447 5.812365,3.149044 -0.05854,0.05854 -0.877629,-0.216755 -1.820201,-0.611767 -4.258368,-1.784602 -8.139038,-2.533766 -13.122526,-2.533306 -5.231198,5.84e-4 -9.60752,0.808669 -13.707587,2.531428 -1.684047,0.707598 -2.319632,0.77565 -1.584297,0.169628 0.692835,-0.571 4.728953,-2.492107 6.945794,-3.306048 1.742855,-0.639916 2.083479,-0.85586 1.631053,-1.034036 -1.480422,-0.583008 -8.080152,1.640651 -10.620766,3.578476 -1.085346,0.827828 -2.216654,3.11525 -3.742695,7.567403 -1.668712,4.868391 -2.395567,8.53552 -2.899117,14.626625 -0.165856,2.006162 -0.149857,2.068763 0.787931,3.084565 2.772377,3.00298 6.729919,4.889026 10.36415,4.939233 1.456651,0.02012 1.549756,-0.02841 2.705929,-1.409286 z m 0.01,-9.306787 c -1.702191,-1.432282 -2.19642,-3.706528 -1.225485,-5.639077 0.691275,-1.37589 2.206868,-2.346086 3.664934,-2.346086 3.858542,0 5.623952,4.82536 2.798957,7.650344 -1.029069,1.02908 -1.261705,1.125624 -2.71211,1.125624 -1.297273,0 -1.757803,-0.144152 -2.526296,-0.790805 z m 14.684022,-0.339241 c -0.709614,-0.709618 -1.204014,-1.524294 -1.328838,-2.189665 -0.23103,-1.231488 0.252119,-3.315808 0.949622,-4.096677 1.320828,-1.478702 3.70507,-1.789134 5.342066,-0.695552 2.532971,1.692142 2.671294,5.308992 0.279991,7.321135 -0.768494,0.646653 -1.229027,0.790805 -2.526303,0.790805 -1.451476,0 -1.682646,-0.09619 -2.716538,-1.130046 z M 142.46451,55.236809 c -2.43411,-0.246468 -4.41379,-0.946953 -6.43571,-2.277175 -1.80113,-1.184963 -4.48234,-3.726441 -4.33662,-4.110637 0.0522,-0.137608 1.31403,-1.387826 2.80407,-2.778249 l 2.70917,-2.528033 1.53255,1.13353 c 2.14961,1.589935 3.64599,2.098383 6.17572,2.098383 1.74802,0 2.32871,-0.123544 3.1388,-0.667748 0.82268,-0.552662 1.00927,-0.875773 1.08264,-1.874747 0.0788,-1.072984 -0.0186,-1.286659 -0.8776,-1.924643 -1.18291,-0.878582 -2.23609,-1.241617 -5.70118,-1.96521 -4.7809,-0.998366 -8.09878,-3.296603 -9.71821,-6.731613 -0.66666,-1.414052 -0.75828,-1.980965 -0.75648,-4.680519 0.002,-2.765721 0.0804,-3.220374 0.78829,-4.565728 1.44211,-2.740564 4.38669,-4.869477 8.05768,-5.825645 1.89412,-0.493356 5.72487,-0.566065 7.91732,-0.150274 2.22572,0.422097 5.21192,2.005544 7.03694,3.73135 1.88891,1.786226 2.06589,1.383076 -1.94284,4.425506 l -2.42079,1.837229 -1.08964,-0.843215 c -3.14428,-2.433203 -6.68019,-2.738724 -8.66979,-0.749114 -0.80127,0.801266 -0.98878,2.037824 -0.45911,3.027543 0.45783,0.855461 2.58232,1.946744 4.52888,2.32634 3.87644,0.755942 7.53191,2.082144 8.55268,3.1029 0.21913,0.219145 0.56003,0.500078 0.75754,0.624298 0.66603,0.418881 2.14229,2.557133 2.6341,3.815301 0.72043,1.843015 0.66303,6.013965 -0.11124,8.083402 -1.80058,4.812472 -8.56895,8.137944 -15.1972,7.466768 z m 31.88603,0.135076 c -3.33345,-0.354223 -6.99175,-1.777672 -8.82354,-3.43326 -1.48896,-1.345723 -2.82337,-3.388736 -3.45695,-5.292627 -0.60877,-1.829327 -0.63224,-2.298713 -0.52391,-10.473706 0.1118,-8.436579 0.1242,-8.58355 0.86985,-10.313734 1.36391,-3.164787 3.84276,-5.38414 7.69282,-6.887525 1.52135,-0.594058 2.28137,-0.687569 5.70439,-0.701845 3.87357,-0.01615 3.98808,0.0021 5.98031,0.945345 2.66835,1.263562 4.3777,2.699732 5.76146,4.840668 1.12362,1.738462 1.38889,2.534689 0.84445,2.534689 -0.15687,0 -1.11125,0.378066 -2.12086,0.840149 -1.00961,0.462082 -2.53097,1.086855 -3.38082,1.388386 l -1.54516,0.548237 -0.71665,-0.915696 c -0.92131,-1.177229 -2.65247,-1.861076 -4.7113,-1.861076 -1.8772,0 -3.18053,0.531375 -4.38448,1.787582 l -0.84627,0.882995 -0.10017,6.825575 c -0.0934,6.367369 -0.0599,6.916527 0.49931,8.180654 0.73456,1.660574 2.28812,2.491701 4.67591,2.501508 1.87646,0.0077 3.24687,-0.589723 4.42148,-1.927529 0.47875,-0.545255 1.00413,-0.991378 1.16755,-0.991378 0.1634,0 1.69611,0.658206 3.40599,1.462665 1.7099,0.80446 3.20959,1.462666 3.33267,1.462666 0.12308,0 0.36717,0.172777 0.54244,0.383953 0.23994,0.289124 0.0736,0.747885 -0.67348,1.857212 -2.90239,4.309795 -8.45925,6.903967 -13.6151,6.356092 z m 27.43613,-0.567655 c -4.14602,-1.005209 -7.65676,-3.6965 -9.24645,-7.088221 l -0.78401,-1.672714 v -9.36104 c 0,-9.113205 0.0176,-9.399139 0.66379,-10.800394 1.43294,-3.107161 3.92085,-5.271178 7.81966,-6.801644 1.90258,-0.746856 2.34836,-0.803472 6.28944,-0.798809 3.84329,0.0045 4.44618,0.07805 6.41842,0.782468 3.83365,1.369248 6.44787,3.568764 7.88609,6.635068 l 0.76091,1.622276 v 9.36685 9.366845 l -0.95779,1.945883 c -1.64248,3.336915 -4.76959,5.688842 -9.03053,6.791944 -2.22225,0.575306 -7.46872,0.581442 -9.81953,0.0115 z m 6.89737,-8.169974 c 0.62208,-0.105256 1.57503,-0.478805 2.11764,-0.83001 1.75159,-1.133706 1.8706,-1.717128 1.8706,-9.170761 0,-5.972238 -0.0585,-6.797771 -0.54645,-7.7079 -1.76977,-3.301214 -9.19257,-3.301214 -10.91543,0 -0.46902,0.898709 -0.53195,1.810603 -0.53195,7.7079 0,7.501905 0.14131,8.175712 1.94891,9.292867 0.95639,0.591083 3.53748,1.154923 4.48681,0.980145 0.24134,-0.04445 0.94777,-0.16694 1.56987,-0.272241 z M 85.559976,54.614017 c -0.08639,-0.22513 -0.120161,-2.179824 -0.07504,-4.343761 l 0.08203,-3.934432 8.097095,-0.146265 c 11.033449,-0.199312 10.421529,0.378437 10.367019,-9.788014 -0.048,-8.951637 -0.23603,-9.226591 -6.309601,-9.226591 h -3.22223 l -0.07816,7.313831 -0.07816,7.313828 -4.465908,-3.984452 -4.465907,-3.98445 0.07792,-7.644231 0.07793,-7.644232 8.337173,0.01294 c 7.782943,0.01205 8.470913,0.05595 10.348893,0.660149 4.8705,1.566974 7.5128,4.09252 8.63973,8.257976 0.25654,0.948206 0.33154,3.819327 0.26364,10.092377 l -0.0949,8.76716 -0.84699,1.70324 c -1.46912,2.954321 -4.01225,5.009043 -7.75013,6.261738 -1.93825,0.649582 -18.668964,0.926775 -18.904412,0.313215 z m 32.761634,-0.0066 c -0.0785,-0.205338 -0.10857,-8.40334 -0.0669,-18.217801 l 0.0758,-17.844477 h 4.53425 4.53425 v 18.137006 18.137012 l -4.46736,0.08082 c -3.41293,0.06169 -4.50106,-0.0077 -4.61012,-0.29254 z m 108.46314,-17.852134 0.0754,-18.210144 8.77597,0.01541 c 7.55548,0.01328 9.01884,0.0882 10.52236,0.538804 3.76117,1.12722 6.08373,2.965556 7.52674,5.957524 0.75318,1.561673 0.92712,2.329435 1.047,4.620967 0.31348,5.993586 -1.60436,10.185297 -5.5685,12.17053 l -1.39153,0.696881 3.24689,4.089221 c 1.78579,2.249071 3.72838,4.670299 4.31687,5.380503 0.58849,0.710193 1.23033,1.500036 1.42633,1.755194 0.86578,1.127084 0.57918,1.195246 -5.02535,1.195246 -3.95622,0 -5.48506,-0.09774 -5.71723,-0.365666 -0.17431,-0.201115 -1.62738,-2.142797 -3.22906,-4.314848 -5.12693,-6.952715 -5.18493,-7.020778 -5.98286,-7.020778 h -0.73286 v 5.850641 5.850651 h -4.68273 -4.68274 z m 17.21411,-2.056511 c 1.25725,-0.847262 1.72095,-1.77105 1.72095,-3.428474 0,-1.657424 -0.4637,-2.581213 -1.72095,-3.428474 -0.89197,-0.601095 -1.33221,-0.66698 -4.45686,-0.66698 h -3.46713 v 4.095454 4.095454 h 3.46713 c 3.12465,0 3.56489,-0.06589 4.45686,-0.66698 z m 16.12881,15.98047 0.0812,-4.343528 7.3133,-0.06977 c 4.02232,-0.03836 7.70823,-0.137142 8.19092,-0.219479 0.48267,-0.08237 1.2725,-0.489232 1.75519,-0.904221 l 0.8776,-0.75454 0.088,-7.193588 c 0.0992,-8.106913 0.0164,-8.560181 -1.72714,-9.449619 -0.90662,-0.46252 -1.72298,-0.569646 -4.34109,-0.569646 h -3.2245 l -0.0782,7.312561 -0.0782,7.312566 -0.8776,-0.752848 c -0.48268,-0.41406 -1.33919,-1.170646 -1.90336,-1.681305 -0.56415,-0.510659 -2.1789,-1.966813 -3.58829,-3.235893 l -2.56255,-2.307413 0.0779,-7.638688 0.078,-7.638685 8.04464,0.01132 c 6.85123,0.0096 8.34841,0.09121 10.09237,0.549819 5.21895,1.372427 8.35868,4.431986 9.22252,8.987061 0.42455,2.238618 0.35061,15.824826 -0.0977,17.949833 -0.73139,3.466937 -3.30588,6.19718 -7.36962,7.815507 l -2.34026,0.931973 -8.85709,0.116058 -8.85709,0.116048 0.0812,-4.343518 z"
       id="path861" />
  </g>
</svg>
