<?xml version="1.0" encoding="UTF-8" standalone="no"?>
<svg
   xmlns:dc="http://purl.org/dc/elements/1.1/"
   xmlns:cc="http://creativecommons.org/ns#"
   xmlns:rdf="http://www.w3.org/1999/02/22-rdf-syntax-ns#"
   xmlns:svg="http://www.w3.org/2000/svg"
   xmlns="http://www.w3.org/2000/svg"
   xmlns:sodipodi="http://sodipodi.sourceforge.net/DTD/sodipodi-0.dtd"
   xmlns:inkscape="http://www.inkscape.org/namespaces/inkscape"
   width="291.52301mm"
   height="94.153mm"
   viewBox="0 0 291.52301 94.153"
   version="1.1"
   id="svg8"
   inkscape:version="1.0.1 (3bc2e813f5, 2020-09-07)"
   sodipodi:docname="reddit.svg">
  <defs
     id="defs2" />
  <sodipodi:namedview
     id="base"
     pagecolor="#ffffff"
     bordercolor="#666666"
     borderopacity="1.0"
     inkscape:pageopacity="0.0"
     inkscape:pageshadow="2"
     inkscape:zoom="0.15284089"
     inkscape:cx="-714.9535"
     inkscape:cy="345.02512"
     inkscape:document-units="mm"
     inkscape:current-layer="layer1"
     inkscape:document-rotation="0"
     showgrid="false"
     inkscape:window-width="817"
     inkscape:window-height="766"
     inkscape:window-x="0"
     inkscape:window-y="0"
     inkscape:window-maximized="0" />
  <metadata
     id="metadata5">
    <rdf:RDF>
      <cc:Work
         rdf:about="">
        <dc:format>image/svg+xml</dc:format>
        <dc:type
           rdf:resource="http://purl.org/dc/dcmitype/StillImage" />
        <dc:title />
      </cc:Work>
    </rdf:RDF>
  </metadata>
  <g
     inkscape:label="Layer 1"
     inkscape:groupmode="layer"
     id="layer1">
    <g
       id="g867"
       transform="translate(16.207865,-42.37212)"
       style="fill:#008bd2;fill-opacity:1">
      <path
         style="fill:#008bd2;stroke-width:0.264583;fill-opacity:1"
         d="M 24.079103,136.15683 C 7.9707515,133.80469 -5.8091425,123.28582 -12.36725,108.33554 c -2.786105,-6.35138 -4.092645,-13.488997 -3.800478,-20.761969 0.74372,-18.513547 12.3158592,-34.896713 29.506978,-41.774272 5.054957,-2.02231 12.229817,-3.427179 17.503069,-3.427179 3.064941,0 8.275788,0.692317 11.675035,1.551156 24.675129,6.234302 39.872277,31.150029 34.234829,56.128014 -4.278432,18.95656 -20.009017,33.41406 -39.281105,36.10205 -3.53967,0.4937 -10.023284,0.49539 -13.391975,0.003 z m 12.805815,-19.58845 c 6.680443,-0.99195 12.731657,-3.84182 16.70392,-7.86686 3.158091,-3.20005 4.549749,-6.23751 4.898531,-10.69161 0.160594,-2.050873 0.269486,-2.463184 0.685376,-2.595185 1.348521,-0.428 3.15499,-3.681486 3.15499,-5.682189 0,-2.743298 -2.179109,-5.690594 -4.778021,-6.462389 -2.328949,-0.691624 -4.099181,-0.456658 -5.932437,0.787423 l -0.983578,0.667473 -2.024335,-1.184185 c -3.793053,-2.218838 -9.159703,-3.974132 -13.136837,-4.296723 -2.745441,-0.222683 -2.917632,-0.254277 -2.872134,-0.526954 0.290102,-1.738691 2.869044,-13.90101 2.988659,-14.09455 0.102484,-0.165823 1.97793,0.123544 5.050332,0.779229 2.688021,0.573654 4.907616,1.043983 4.932431,1.045176 0.02482,0.0011 0.125519,0.3682 0.223777,0.81557 0.25604,1.165739 1.552334,2.520109 2.907329,3.037586 3.068037,1.171694 6.282526,-1.088406 6.25688,-4.399195 -0.01085,-1.39891 -0.454218,-2.451291 -1.407933,-3.34177 -0.77112,-0.719992 -2.357892,-1.401691 -3.262675,-1.401691 -0.986882,0 -2.527794,0.707684 -3.439583,1.579671 l -0.79375,0.759103 -6.036082,-1.211371 c -5.935226,-1.191129 -6.044335,-1.202932 -6.52984,-0.706366 -0.357516,0.36566 -0.973606,2.762282 -2.2328,8.685691 -0.956472,4.49938 -1.784207,8.225854 -1.83941,8.281057 -0.0552,0.05521 -1.198682,0.214 -2.541064,0.352882 -4.422113,0.457505 -7.991938,1.474346 -11.770606,3.352771 -1.306142,0.649301 -2.699572,1.411804 -3.096511,1.69445 l -0.721709,0.5139 -1.5146708,-0.854826 c -3.4967174,-1.973424 -7.9646038,-0.544788 -9.64898886,3.08533 -1.36700944,2.946122 0.00426,7.333522 2.73845336,8.761666 0.7005452,0.365914 0.7276041,0.458005 0.7276041,2.476262 0,6.721374 5.1121468,12.959804 13.4719112,16.439974 2.172859,0.90457 6.065652,1.95602 8.580117,2.3175 2.689945,0.38672 8.239778,0.32904 11.242654,-0.11685 z m -9.085308,-5.85824 c -3.695842,-0.51111 -8.863541,-3.00724 -8.863541,-4.28131 0,-0.26108 0.246761,-0.69801 0.548359,-0.97096 0.538618,-0.48744 0.570344,-0.4832 1.785938,0.23839 2.96682,1.76115 5.063823,2.45104 8.249036,2.71383 3.712416,0.3063 7.307313,-0.52378 10.441215,-2.41092 1.622832,-0.97722 2.315884,-1.00912 2.787285,-0.1283 0.407188,0.76084 0.07231,1.24239 -1.548014,2.22598 -3.762092,2.28373 -8.749818,3.25643 -13.400278,2.61329 z M 40.664393,99.005291 c -1.130607,-0.283242 -2.117889,-1.011328 -2.870319,-2.116754 -1.582399,-2.324772 -0.684462,-5.484551 1.89099,-6.654263 2.12911,-0.966994 4.595238,-0.31595 5.821328,1.536798 2.446642,3.697123 -0.627486,8.290048 -4.841999,7.234219 z M 17.999081,98.495626 c -2.745888,-1.247285 -3.650649,-4.694422 -1.851308,-7.053482 0.941226,-1.234011 2.122041,-1.809154 3.714337,-1.809154 5.021715,0 6.447036,6.78041 1.86303,8.862636 -1.352728,0.614458 -2.373331,0.614458 -3.726059,0 z M 126.15904,93.568995 c 0.003,-0.582084 0.0571,-0.789054 0.12041,-0.459936 0.0633,0.329118 0.0609,0.805368 -0.005,1.058333 -0.0662,0.252966 -0.118,-0.01633 -0.11507,-0.598397 z m 132.55567,-11.9667 c 0.5457,-0.05708 1.43867,-0.05708 1.98437,0 0.54571,0.05708 0.0992,0.103786 -0.99218,0.103786 -1.09141,0 -1.53789,-0.0467 -0.99219,-0.103786 z M 132.17773,79.049307 c 0,-0.05494 0.20836,-0.2633 0.46302,-0.463021 0.41965,-0.329107 0.42901,-0.319749 0.0999,0.0999 -0.34564,0.44073 -0.56292,0.580888 -0.56292,0.363125 z m 112.33962,-4.26901 c -2.64631,-1.01079 -4.12914,-3.173222 -4.11921,-6.007195 0.0132,-3.778938 2.56357,-6.292649 6.38444,-6.292649 6.62877,0 8.68339,8.912828 2.75702,11.959833 -1.35179,0.695011 -3.68012,0.852641 -5.02225,0.340011 z"
         id="path871" />
      <path
         style="fill:#008bd2;stroke-width:0.264583;fill-opacity:1"
         d="m 141.96732,112.7607 c -3.67016,-0.41607 -6.62817,-1.76805 -9.37474,-4.28478 -4.13423,-3.78828 -6.23568,-8.769907 -6.23568,-14.78214 0,-4.988629 1.38019,-9.16324 4.18491,-12.657995 5.42916,-6.764858 13.48096,-8.431501 20.95051,-4.336539 2.21165,1.212474 5.6707,4.685416 6.78831,6.815582 1.52211,2.901122 2.46985,6.985376 2.09035,9.00829 -0.23459,1.250479 -1.79229,2.947739 -3.01774,3.288115 -0.58404,0.162224 -5.48059,0.268935 -12.38124,0.269827 l -11.4151,0.0016 0.25019,1.12448 c 0.70327,3.16088 2.99533,6.06451 5.91127,7.48847 1.40411,0.68568 1.86258,0.77417 3.96875,0.76603 2.97717,-0.0115 4.58161,-0.59969 7.09102,-2.59951 1.93875,-1.54504 2.98228,-1.89967 4.39651,-1.49407 1.9169,0.54976 2.95179,2.46648 2.41269,4.46854 -0.45692,1.69688 -3.77595,4.42949 -7.02106,5.78055 -2.40657,1.00194 -5.83128,1.45744 -8.59895,1.14367 z m 10.84791,-23.382779 c 0,-0.953903 -1.72558,-3.68498 -3.17778,-5.029454 -3.83438,-3.54996 -8.59547,-3.54996 -12.42986,0 -1.45219,1.344474 -3.17777,4.075551 -3.17777,5.029454 0,0.289771 1.7175,0.354615 9.3927,0.354615 7.6752,0 9.39271,-0.06484 9.39271,-0.354615 z m 25.76447,23.342109 c -7.53401,-0.84946 -13.66033,-7.1884 -15.16752,-15.6939 -0.90392,-5.1011 0.46991,-11.049256 3.54846,-15.363467 3.42624,-4.801442 9.1107,-7.614534 14.55481,-7.202797 2.79449,0.211349 4.68311,0.968401 7.48155,2.998996 l 0.59532,0.431967 v -8.21713 c 0,-5.178277 0.10436,-8.492583 0.2822,-8.961959 0.42807,-1.1298 1.28911,-1.9107 2.45208,-2.223855 1.41605,-0.381301 3.18904,0.274563 3.90171,1.443318 0.48825,0.800719 0.50578,1.66828 0.50578,25.038833 0,23.545424 -0.0142,24.232604 -0.51648,25.056424 -0.73099,1.19887 -1.93501,1.75695 -3.42799,1.58891 -0.99176,-0.11162 -1.38179,-0.32595 -2.13897,-1.17541 l -0.92604,-1.03891 -1.66414,1.14153 c -2.67481,1.83478 -5.91656,2.57932 -9.48077,2.17745 z m 4.66262,-7.53152 c 2.55717,-0.80914 5.18448,-3.56851 6.37677,-6.697286 0.80618,-2.115574 0.97426,-5.76421 0.37767,-8.198647 -1.13177,-4.618283 -4.68618,-8.134937 -8.73337,-8.640598 -3.02135,-0.377495 -6.61775,1.438587 -8.61339,4.349517 -1.67564,2.444165 -2.24416,4.455475 -2.21384,7.832082 0.0299,3.332898 0.50185,4.997424 2.09908,7.403752 2.60032,3.91756 6.39168,5.31667 10.70708,3.95118 z m 34.13124,7.63493 c -4.26024,-0.33649 -7.58813,-1.8491 -10.52275,-4.78284 -4.00748,-4.00629 -5.87139,-8.599205 -5.87291,-14.471605 -0.002,-5.810028 2.12419,-10.818249 6.21202,-14.635838 5.62198,-5.250307 14.05792,-6.037233 19.11381,-1.782984 0.44193,0.371861 0.87101,0.676113 0.95348,0.676113 0.0825,0 0.18436,-3.921397 0.2264,-8.714216 l 0.0764,-8.714217 0.77124,-0.804667 c 1.88576,-1.967462 4.66868,-1.521805 5.94257,0.951644 0.21402,0.41553 0.29765,7.293592 0.29765,24.478086 0,22.671534 -0.0249,23.947564 -0.48546,24.822084 -0.56761,1.07791 -1.90883,1.84737 -3.21871,1.84655 -1.13215,-7.9e-4 -2.55143,-0.82483 -2.95828,-1.71778 -0.32543,-0.71423 -0.60957,-0.83211 -0.8945,-0.37107 -0.0989,0.16005 -0.8764,0.74121 -1.72778,1.29147 -2.0966,1.3551 -5.29866,2.13578 -7.91319,1.92927 z m 4.4251,-8.0165 c 4.74139,-2.16736 7.39093,-8.421583 6.02394,-14.219577 -1.04275,-4.422672 -3.83295,-7.592335 -7.63294,-8.670994 -1.99143,-0.565285 -3.86979,-0.345842 -5.95383,0.695566 -6.70235,3.349204 -8.26173,13.86695 -2.94907,19.890925 2.84646,3.22759 6.66203,4.06391 10.5119,2.30408 z m -116.21155,7.04168 c -0.43656,-0.19403 -1.09141,-0.67515 -1.45521,-1.06916 l -0.66146,-0.71638 -0.0704,-16.05225 c -0.0666,-15.170195 -0.0436,-16.102015 0.41731,-16.957849 0.55475,-1.029999 1.92822,-1.872528 3.05254,-1.872528 1.72475,0 3.61203,1.796317 3.61203,3.437943 0,0.517281 0.13946,0.454459 1.2925,-0.582224 3.24157,-2.914449 8.43643,-4.361206 12.05369,-3.356924 2.91447,0.809161 3.67432,4.425828 1.3089,6.230019 -0.76719,0.585168 -1.17003,0.692237 -2.53182,0.672928 -4.33024,-0.0614 -7.97442,1.672249 -10.12777,4.818086 -1.83352,2.678589 -1.83184,2.667032 -1.9873,13.696319 l -0.14049,9.9672 -0.66146,0.70742 c -1.31638,1.40787 -2.59923,1.74489 -4.10104,1.0774 z m 139.08876,-0.42703 c -1.64741,-1.0044 -1.63783,-0.90876 -1.63674,-16.322743 0,-13.375661 0.0228,-14.000967 0.51654,-14.81079 1.44947,-2.377205 4.68728,-2.49388 6.09288,-0.219559 0.5175,0.837308 0.53332,1.286682 0.53237,15.119225 0,13.672897 -0.0222,14.290937 -0.51747,15.103317 -1.00034,1.64061 -3.29708,2.16122 -4.98758,1.13055 z m 18.6029,0.0101 c -1.76186,-1.1595 -1.71979,-0.76634 -1.71979,-16.072616 V 81.530448 h -2.22861 c -2.11521,0 -2.26833,-0.03972 -3.00937,-0.780778 -0.42945,-0.429429 -0.84064,-1.093806 -0.91377,-1.476391 -0.20619,-1.078666 0.22485,-2.519497 0.97965,-3.274602 0.61767,-0.617942 0.92112,-0.695105 3.06118,-0.77841 l 2.3755,-0.09247 v -3.082529 c 0,-2.590469 0.0835,-3.21774 0.51748,-3.929578 1.3527,-2.21851 4.75414,-2.21851 6.10684,0 0.43469,0.712925 0.51663,1.339324 0.51748,3.955905 v 3.108854 h 2.14198 c 3.21829,0 4.20802,0.787029 4.20802,3.346198 0,1.017199 -0.13997,1.344608 -0.89959,2.104218 -0.88357,0.883584 -0.94004,0.899584 -3.175,0.899584 h -2.27541 v 13.903764 c 0,15.343937 0.0395,14.964667 -1.66648,16.004857 -1.11863,0.68207 -2.97963,0.67864 -4.02207,-0.007 z"
         id="path869" />
    </g>
  </g>
</svg>
